<?xml version="1.0" encoding="UTF-8"?>
<svg id="artwork" xmlns="http://www.w3.org/2000/svg" version="1.1" viewBox="0 0 1024 1024">
  <!-- Generator: Adobe Illustrator 30.0.0, SVG Export Plug-In . SVG Version: 2.1.1 Build 123)  -->
  <defs>
    <style>
      .st0 {
        fill: #8c3e96;
      }
    </style>
  </defs>
  <path class="st0" d="M533.6,459.9l-213.2-213.2c-13.8-13.8-36.3-13.8-50.1,0l-43.7,43.7c-13.8,13.8-13.8,36.3,0,50.1l119.3,119.3c13.8,13.8,13.8,36.3,0,50.1l-119.3,119.3c-13.8,13.8-13.8,36.3,0,50.1l43.6,43.7c13.8,13.8,36.3,13.8,50.1,0l46.9-46.9c14.4-14.4,39.1-4.2,39.1,16.2v30.2c0,19.6,15.9,35.4,35.4,35.4h323c19.6,0,35.4-15.9,35.4-35.4v-86.4c0-19.6-15.9-35.4-35.4-35.4h-267.4c-20.2,0-30.3-24.4-16-38.6l52.2-52.2c13.8-13.8,13.8-36.3,0-50.1h.1Z"/>
  <path class="st0" d="M512,141.1c94.1,0,189.5,4.4,283.6,13.2,17.1,1.6,34.2,6.6,50.7,14.7,15.5,7.7,30.1,18,43.4,30.6h0c13.3,12.9,24.3,27,32.7,42.3,8.9,16.3,14.6,33.3,16.8,50.5,9.2,72.8,13.9,146.7,13.9,219.6s-4.7,146.7-13.9,219.6c-2.2,17.2-7.8,34.2-16.8,50.5-8.3,15.2-19.3,29.4-32.7,42.2h0c-13.3,12.7-27.9,23-43.5,30.7-16.5,8.2-33.6,13.1-50.7,14.7-94.1,8.7-189.5,13.2-283.6,13.2s-189.5-4.4-283.6-13.2c-17.1-1.6-34.2-6.5-50.7-14.7-15.5-7.7-30.1-18-43.4-30.7h0c-13.3-12.8-24.3-27-32.7-42.2-8.9-16.3-14.6-33.3-16.8-50.5-9.2-72.8-13.9-146.7-13.9-219.6s4.7-146.7,13.9-219.6c2.2-17.2,7.8-34.2,16.8-50.5,8.3-15.2,19.3-29.4,32.7-42.2h0c13.3-12.7,27.9-23,43.4-30.7,16.5-8.2,33.6-13.1,50.7-14.7,94.1-8.7,189.5-13.2,283.6-13.2h.1ZM512,80.3c-96,0-193.3,4.5-289.2,13.4-24.6,2.3-48.9,9.3-72.1,20.8-21.1,10.4-40.7,24.3-58.4,41.2h0c-17.8,17.2-32.6,36.3-43.9,57-12.6,23-20.6,47.3-23.8,72.1-9.6,75.4-14.4,151.8-14.4,227.2s4.9,151.8,14.4,227.2c3.1,24.8,11.2,49.1,23.8,72.1,11.3,20.7,26.1,39.8,43.9,56.9h0c17.7,17,37.4,30.9,58.4,41.3,23.2,11.5,47.5,18.5,72.1,20.8,96,8.9,193.3,13.4,289.2,13.4s193.3-4.5,289.2-13.4c24.6-2.3,48.8-9.3,72.1-20.8,21-10.4,40.7-24.3,58.5-41.2h0c17.8-17.2,32.6-36.3,43.9-57,12.6-23,20.6-47.3,23.8-72.1,9.6-75.4,14.4-151.8,14.4-227.2s-4.8-151.9-14.4-227.2c-3.2-24.8-11.2-49.1-23.8-72.1-11.3-20.7-26.1-39.8-43.9-56.9h0c-17.7-17-37.4-30.9-58.5-41.3-23.2-11.5-47.5-18.5-72.1-20.8-96-8.9-193.3-13.4-289.2-13.4h0Z"/>
</svg>